<svg width="512" height="512" viewBox="0 0 512 512" fill="none" xmlns="http://www.w3.org/2000/svg">
<path d="M256 0C114.837 0 0 114.837 0 256C0 397.163 114.837 512 256 512C397.163 512 512 397.163 512 256C512 114.837 397.163 0 256 0ZM385.749 201.749L247.083 340.416C242.923 344.576 237.461 346.667 232 346.667C226.539 346.667 221.077 344.576 216.917 340.416L147.584 271.083C139.243 262.741 139.243 249.259 147.584 240.917C155.925 232.576 169.408 232.576 177.749 240.917L232 295.168L355.584 171.584C363.925 163.243 377.408 163.243 385.749 171.584C394.091 179.925 394.091 193.408 385.749 201.749V201.749Z" fill="#F1DB10"/>
</svg>
