<svg width="59" height="58" viewBox="0 0 59 58" fill="none" xmlns="http://www.w3.org/2000/svg">
<ellipse cx="29.5" cy="29" rx="29.5" ry="29" fill="#F4F5F4"/>
<path d="M39.3334 39.875V37.4583C39.3334 36.1765 38.8154 34.9471 37.8934 34.0407C36.9713 33.1342 35.7207 32.625 34.4167 32.625H24.5834C23.2794 32.625 22.0289 33.1342 21.1068 34.0407C20.1848 34.9471 19.6667 36.1765 19.6667 37.4583V39.875" stroke="#C3CBCD" stroke-width="1.5" stroke-linecap="round" stroke-linejoin="round"/>
<path d="M29.4999 27.7917C32.2153 27.7917 34.4166 25.6277 34.4166 22.9583C34.4166 20.289 32.2153 18.125 29.4999 18.125C26.7845 18.125 24.5833 20.289 24.5833 22.9583C24.5833 25.6277 26.7845 27.7917 29.4999 27.7917Z" stroke="#C3CBCD" stroke-width="1.5" stroke-linecap="round" stroke-linejoin="round"/>
</svg>
