<svg width="14" height="14" viewBox="0 0 14 14" fill="none" xmlns="http://www.w3.org/2000/svg">
<path fill-rule="evenodd" clip-rule="evenodd" d="M13.2471 0.44417C12.6562 -0.148057 11.7698 -0.148057 11.1788 0.44417L6.84517 4.78717L2.51154 0.44417C1.92059 -0.148057 1.03416 -0.148057 0.443213 0.44417C-0.147738 1.0364 -0.147738 1.92474 0.443213 2.51696L4.77685 6.85996L0.443213 11.203C-0.147738 11.7952 -0.147738 12.6835 0.443213 13.2758C0.738688 13.5719 1.13265 13.6706 1.52662 13.6706C1.92059 13.6706 2.31455 13.5719 2.61003 13.2758L6.94366 8.93276L11.2773 13.2758C11.5728 13.5719 11.9667 13.6706 12.3607 13.6706C12.7547 13.6706 13.1486 13.5719 13.4441 13.2758C14.0351 12.6835 14.0351 11.7952 13.4441 11.203L9.11048 6.85996L13.4441 2.51696C13.8381 1.92474 13.8381 1.0364 13.2471 0.44417Z" fill="#323C47" fill-opacity="0.8"/>
</svg>
