<svg width="38" height="37" viewBox="0 0 38 37" fill="none" xmlns="http://www.w3.org/2000/svg">
<path d="M5.75 19.2917C5.61193 19.2917 5.5 19.1797 5.5 19.0417V5.625C5.5 5.48693 5.61193 5.375 5.75 5.375H16.4167C16.5547 5.375 16.6667 5.48693 16.6667 5.625V19.0417C16.6667 19.1797 16.5547 19.2917 16.4167 19.2917H5.75ZM5.75 31.625C5.61193 31.625 5.5 31.5131 5.5 31.375V24.125C5.5 23.9869 5.61193 23.875 5.75 23.875H16.4167C16.5547 23.875 16.6667 23.9869 16.6667 24.125V31.375C16.6667 31.5131 16.5547 31.625 16.4167 31.625H5.75ZM21.5833 31.625C21.4453 31.625 21.3333 31.5131 21.3333 31.375V17.9583C21.3333 17.8203 21.4453 17.7083 21.5833 17.7083H32.25C32.3881 17.7083 32.5 17.8203 32.5 17.9583V31.375C32.5 31.5131 32.3881 31.625 32.25 31.625H21.5833ZM21.3333 5.625C21.3333 5.48693 21.4453 5.375 21.5833 5.375H32.25C32.3881 5.375 32.5 5.48693 32.5 5.625V12.875C32.5 13.0131 32.3881 13.125 32.25 13.125H21.5833C21.4453 13.125 21.3333 13.0131 21.3333 12.875V5.625Z" stroke="#737B7D" stroke-opacity="0.7" stroke-width="1.5"/>
</svg>
