<svg width="30" height="31" viewBox="0 0 30 31" fill="none" xmlns="http://www.w3.org/2000/svg">
<path d="M12.3333 16.5417H1C0.861928 16.5417 0.75 16.4297 0.75 16.2917V1.625C0.75 1.48693 0.861929 1.375 0.999999 1.375H12.3333C12.4714 1.375 12.5833 1.48693 12.5833 1.625V16.2917C12.5833 16.4297 12.4714 16.5417 12.3333 16.5417ZM12.3333 29.875H1C0.861929 29.875 0.75 29.7631 0.75 29.625V21.625C0.75 21.4869 0.861929 21.375 0.999999 21.375H12.3333C12.4714 21.375 12.5833 21.4869 12.5833 21.625V29.625C12.5833 29.7631 12.4714 29.875 12.3333 29.875ZM29 29.875H17.6667C17.5286 29.875 17.4167 29.7631 17.4167 29.625V14.9583C17.4167 14.8203 17.5286 14.7083 17.6667 14.7083H29C29.1381 14.7083 29.25 14.8203 29.25 14.9583V29.625C29.25 29.7631 29.1381 29.875 29 29.875ZM17.4167 9.625V1.625C17.4167 1.48693 17.5286 1.375 17.6667 1.375H29C29.1381 1.375 29.25 1.48693 29.25 1.625V9.625C29.25 9.76307 29.1381 9.875 29 9.875H17.6667C17.5286 9.875 17.4167 9.76307 17.4167 9.625Z" stroke="#737B7D" stroke-opacity="0.7" stroke-width="1.5"/>
</svg>
