<svg width="30" height="30" viewBox="0 0 30 30" fill="none" xmlns="http://www.w3.org/2000/svg">
<path d="M12.3333 15.9167H1C0.861928 15.9167 0.75 15.8047 0.75 15.6667V1C0.75 0.861928 0.861929 0.75 0.999999 0.75H12.3333C12.4714 0.75 12.5833 0.861929 12.5833 0.999999V15.6667C12.5833 15.8047 12.4714 15.9167 12.3333 15.9167ZM12.3333 29.25H1C0.861929 29.25 0.75 29.1381 0.75 29V21C0.75 20.8619 0.861929 20.75 0.999999 20.75H12.3333C12.4714 20.75 12.5833 20.8619 12.5833 21V29C12.5833 29.1381 12.4714 29.25 12.3333 29.25ZM29 29.25H17.6667C17.5286 29.25 17.4167 29.1381 17.4167 29V14.3333C17.4167 14.1953 17.5286 14.0833 17.6667 14.0833H29C29.1381 14.0833 29.25 14.1953 29.25 14.3333V29C29.25 29.1381 29.1381 29.25 29 29.25ZM17.4167 9V1C17.4167 0.861928 17.5286 0.75 17.6667 0.75H29C29.1381 0.75 29.25 0.861929 29.25 1V9C29.25 9.13807 29.1381 9.25 29 9.25H17.6667C17.5286 9.25 17.4167 9.13807 17.4167 9Z" stroke="#F1DB10" stroke-width="1.5"/>
</svg>
