<svg width="38" height="37" viewBox="0 0 38 37" fill="none" xmlns="http://www.w3.org/2000/svg">
<path d="M18.9999 33.9167C20.7416 33.9167 22.1666 32.5292 22.1666 30.8333H15.8333C15.8333 32.5292 17.2424 33.9167 18.9999 33.9167ZM28.4999 24.6667V16.9583C28.4999 12.2254 25.9033 8.26332 21.3749 7.21499V6.16666C21.3749 4.88707 20.3141 3.85416 18.9999 3.85416C17.6858 3.85416 16.6249 4.88707 16.6249 6.16666V7.21499C12.0808 8.26332 9.49992 12.21 9.49992 16.9583V24.6667L6.33325 27.75V29.2917H31.6666V27.75L28.4999 24.6667Z" fill="white" stroke="#737B7D" stroke-width="1.5"/>
<path d="M26.9166 15.9167C30.6779 15.9167 33.7499 12.9444 33.7499 9.25001C33.7499 5.55563 30.6779 2.58334 26.9166 2.58334C23.1553 2.58334 20.0833 5.55563 20.0833 9.25001C20.0833 12.9444 23.1553 15.9167 26.9166 15.9167Z" fill="#F7685B" stroke="white"/>
</svg>
