<svg width="30" height="30" viewBox="0 0 30 30" fill="none" xmlns="http://www.w3.org/2000/svg">
<path d="M20.7917 17.9583H19.5408L19.0975 17.5421C20.6492 15.7846 21.5833 13.5029 21.5833 11.0208C21.5833 5.48625 16.9758 1 11.2917 1C5.6075 1 1 5.48625 1 11.0208C1 16.5554 5.6075 21.0417 11.2917 21.0417C13.8408 21.0417 16.1842 20.1321 17.9892 18.6213L18.4167 19.0529V20.2708L26.3333 27.9638L28.6925 25.6667L20.7917 17.9583ZM11.2917 17.9583C7.34917 17.9583 4.16667 14.8596 4.16667 11.0208C4.16667 7.18208 7.34917 4.08333 11.2917 4.08333C15.2342 4.08333 18.4167 7.18208 18.4167 11.0208C18.4167 14.8596 15.2342 17.9583 11.2917 17.9583Z" stroke="#737B7D" stroke-width="1.5"/>
</svg>
