<svg width="30" height="30" viewBox="0 0 30 30" fill="none" xmlns="http://www.w3.org/2000/svg">
<path d="M1.57895 0.75H28.4211C28.8376 0.75 29.25 1.12549 29.25 1.66667V11.6667C29.25 12.2078 28.8376 12.5833 28.4211 12.5833H1.57895C1.16243 12.5833 0.75 12.2078 0.75 11.6667V1.66667C0.75 1.12549 1.16243 0.75 1.57895 0.75ZM1.57895 17.4167H28.4211C28.8376 17.4167 29.25 17.7922 29.25 18.3333V28.3333C29.25 28.8745 28.8376 29.25 28.4211 29.25H1.57895C1.16243 29.25 0.75 28.8745 0.75 28.3333V18.3333C0.75 17.7922 1.16243 17.4167 1.57895 17.4167Z" stroke="#737B7D" stroke-opacity="0.7" stroke-width="1.5"/>
</svg>
