<svg width="38" height="37" viewBox="0 0 38 37" fill="none" xmlns="http://www.w3.org/2000/svg">
<path d="M19 23.125C21.6234 23.125 23.75 21.0543 23.75 18.5C23.75 15.9457 21.6234 13.875 19 13.875C16.3766 13.875 14.25 15.9457 14.25 18.5C14.25 21.0543 16.3766 23.125 19 23.125Z" stroke="#737B7D" stroke-width="1.5" stroke-linecap="round" stroke-linejoin="round"/>
<path d="M30.7166 23.125C30.5058 23.59 30.4429 24.1058 30.5361 24.6059C30.6292 25.106 30.8741 25.5675 31.2391 25.9309L31.3341 26.0233C31.6285 26.3097 31.8621 26.6498 32.0214 27.0241C32.1808 27.3984 32.2628 27.7996 32.2628 28.2048C32.2628 28.61 32.1808 29.0112 32.0214 29.3855C31.8621 29.7599 31.6285 30.0999 31.3341 30.3863C31.04 30.6729 30.6907 30.9004 30.3063 31.0555C29.9219 31.2107 29.5098 31.2906 29.0937 31.2906C28.6775 31.2906 28.2655 31.2107 27.881 31.0555C27.4966 30.9004 27.1473 30.6729 26.8532 30.3863L26.7583 30.2938C26.3851 29.9384 25.9111 29.6999 25.3975 29.6093C24.8839 29.5186 24.3541 29.5798 23.8766 29.785C23.4083 29.9804 23.0089 30.3049 22.7276 30.7186C22.4463 31.1322 22.2953 31.6168 22.2933 32.1129V32.375C22.2933 33.1928 21.9596 33.977 21.3658 34.5553C20.7719 35.1335 19.9664 35.4584 19.1266 35.4584C18.2867 35.4584 17.4813 35.1335 16.8874 34.5553C16.2935 33.977 15.9599 33.1928 15.9599 32.375V32.2363C15.9477 31.726 15.778 31.2311 15.4731 30.8159C15.1681 30.4008 14.7419 30.0845 14.2499 29.9084C13.7724 29.7031 13.2426 29.6419 12.729 29.7326C12.2154 29.8233 11.7414 30.0617 11.3683 30.4171L11.2733 30.5096C10.9792 30.7963 10.6299 31.0237 10.2455 31.1789C9.86105 31.334 9.44898 31.4139 9.03283 31.4139C8.61669 31.4139 8.20462 31.334 7.82019 31.1789C7.43576 31.0237 7.08652 30.7963 6.79242 30.5096C6.49799 30.2232 6.26442 29.8832 6.10506 29.5089C5.9457 29.1346 5.86368 28.7333 5.86368 28.3281C5.86368 27.9229 5.9457 27.5217 6.10506 27.1474C6.26442 26.7731 6.49799 26.433 6.79242 26.1467L6.88742 26.0542C7.25243 25.6908 7.4973 25.2294 7.59043 24.7293C7.68356 24.2291 7.62068 23.7133 7.40992 23.2484C7.20921 22.7924 6.87595 22.4035 6.45116 22.1296C6.02636 21.8557 5.52858 21.7087 5.01909 21.7067H4.74992C3.91007 21.7067 3.10461 21.3818 2.51075 20.8036C1.91688 20.2254 1.58325 19.4411 1.58325 18.6234C1.58325 17.8056 1.91688 17.0213 2.51075 16.4431C3.10461 15.8649 3.91007 15.54 4.74992 15.54H4.89242C5.41649 15.5281 5.92476 15.3629 6.35114 15.066C6.77752 14.769 7.1023 14.3541 7.28325 13.875C7.49402 13.41 7.55689 12.8942 7.46376 12.3941C7.37063 11.894 7.12577 11.4325 6.76075 11.0692L6.66575 10.9767C6.37133 10.6903 6.13776 10.3503 5.9784 9.97596C5.81904 9.60165 5.73701 9.20043 5.73701 8.79523C5.73701 8.39003 5.81904 7.98881 5.9784 7.6145C6.13776 7.24018 6.37133 6.90013 6.66575 6.61377C6.95985 6.32709 7.3091 6.09967 7.69352 5.9445C8.07795 5.78934 8.49002 5.70947 8.90617 5.70947C9.32232 5.70947 9.73439 5.78934 10.1188 5.9445C10.5032 6.09967 10.8525 6.32709 11.1466 6.61377L11.2416 6.70627C11.6147 7.06168 12.0887 7.3001 12.6023 7.39078C13.1159 7.48146 13.6457 7.42024 14.1233 7.21502H14.2499C14.7182 7.01959 15.1176 6.6951 15.3989 6.28149C15.6803 5.86787 15.8312 5.38319 15.8333 4.8871V4.62502C15.8333 3.80727 16.1669 3.02301 16.7607 2.44477C17.3546 1.86654 18.1601 1.54169 18.9999 1.54169C19.8398 1.54169 20.6452 1.86654 21.2391 2.44477C21.833 3.02301 22.1666 3.80727 22.1666 4.62502V4.76377C22.1686 5.25986 22.3196 5.74454 22.6009 6.15815C22.8822 6.57177 23.2816 6.89626 23.7499 7.09169C24.2275 7.29691 24.7572 7.35812 25.2708 7.26744C25.7845 7.17676 26.2584 6.93835 26.6316 6.58294L26.7266 6.49044C27.0207 6.20376 27.3699 5.97634 27.7544 5.82117C28.1388 5.666 28.5509 5.58614 28.967 5.58614C29.3831 5.58614 29.7952 5.666 30.1796 5.82117C30.5641 5.97634 30.9133 6.20376 31.2074 6.49044C31.5018 6.7768 31.7354 7.11685 31.8948 7.49116C32.0541 7.86547 32.1362 8.2667 32.1362 8.67189C32.1362 9.07709 32.0541 9.47832 31.8948 9.85263C31.7354 10.2269 31.5018 10.567 31.2074 10.8534L31.1124 10.9459C30.7474 11.3092 30.5025 11.7707 30.4094 12.2708C30.3163 12.7709 30.3792 13.2867 30.5899 13.7517V13.875C30.7906 14.331 31.1239 14.7199 31.5487 14.9938C31.9735 15.2677 32.4713 15.4147 32.9808 15.4167H33.2499C34.0898 15.4167 34.8952 15.7415 35.4891 16.3198C36.083 16.898 36.4166 17.6823 36.4166 18.5C36.4166 19.3178 36.083 20.102 35.4891 20.6803C34.8952 21.2585 34.0898 21.5834 33.2499 21.5834H33.1074C32.5979 21.5853 32.1001 21.7323 31.6753 22.0062C31.2506 22.2802 30.9173 22.669 30.7166 23.125V23.125Z" stroke="#737B7D" stroke-width="1.5" stroke-linecap="round" stroke-linejoin="round"/>
</svg>
