<svg width="28" height="37" viewBox="0 0 28 37" fill="none" xmlns="http://www.w3.org/2000/svg">
<path d="M1.47368 0.75H26.5263C26.6346 0.75 26.7986 0.809243 26.9631 1.03266C27.1267 1.25488 27.25 1.59603 27.25 2.00176V14.0123C27.25 14.4181 27.1267 14.7592 26.9631 14.9814C26.7986 15.2049 26.6346 15.2641 26.5263 15.2641H1.47368C1.36538 15.2641 1.20135 15.2049 1.03687 14.9814C0.873281 14.7592 0.75 14.4181 0.75 14.0123V2.00176C0.75 1.59603 0.873281 1.25488 1.03687 1.03266C1.20135 0.809243 1.36538 0.75 1.47368 0.75ZM1.47368 20.7676H26.5263C26.6346 20.7676 26.7986 20.8269 26.9631 21.0503C27.1267 21.2725 27.25 21.6136 27.25 22.0194V34.0299C27.25 34.4357 27.1267 34.7768 26.9631 34.999C26.7986 35.2225 26.6346 35.2817 26.5263 35.2817H1.47368C1.36538 35.2817 1.20135 35.2225 1.03687 34.999C0.873281 34.7768 0.75 34.4357 0.75 34.0299V22.0194C0.75 21.6136 0.873281 21.2725 1.03687 21.0503C1.20135 20.8269 1.36538 20.7676 1.47368 20.7676Z" stroke="#737B7D" stroke-opacity="0.7" stroke-width="1.5"/>
</svg>
